<svg width="74" height="79" fill="#fff" xmlns="http://www.w3.org/2000/svg"><path d="M73.7 18C72.6 9.6 65.2 3 56.4 1.8c-1.5-.2-7-1-20-1h-.1c-13 0-15.8.8-17.2 1C10.6 3 2.8 8.9.9 17.4c-.9 4.1-1 8.7-.8 13 .2 6 .3 12 .8 18 .4 4.1 1 8 2 12 1.8 7.2 9 13.2 16.2 15.7a44 44 0 0 0 26.2.5c1.9-.6 4.1-1.2 5.8-2.4a.2.2 0 0 0 0-.1v-5.9a.2.2 0 0 0 0-.1.2.2 0 0 0-.2 0c-5 1.1-10.2 1.7-15.3 1.7-9 0-11.3-4.1-12-5.9a18 18 0 0 1-1-4.7.2.2 0 0 1 .2 0c5 1 10 1.7 15 1.7h3.7c5.2-.2 10.5-.4 15.6-1.4h.3c8-1.6 15.5-6.3 16.3-18.2v-5.4c0-1.7.6-11.7 0-18ZM61.5 47.7h-8.3V27.6c0-4.2-1.8-6.4-5.5-6.4-4 0-6 2.5-6 7.6v11h-8.3v-11c0-5-2-7.6-6-7.6-3.6 0-5.4 2.2-5.4 6.4v20h-8.4V27c0-4.3 1.1-7.6 3.3-10.1 2.3-2.5 5.2-3.8 9-3.8 4.2 0 7.4 1.6 9.6 4.9l2 3.4 2.1-3.4c2.2-3.3 5.4-4.9 9.7-4.9 3.7 0 6.6 1.3 9 3.8 2.1 2.5 3.2 5.8 3.2 10v20.8Z" fill="inherit"/></svg>